<svg xmlns="http://www.w3.org/2000/svg" version="1.1" xmlns:xlink="http://www.w3.org/1999/xlink" width="512" height="512" x="0" y="0" viewBox="0 0 64 64" style="enable-background:new 0 0 512 512" xml:space="preserve" class=""><g><path d="M53 21H11c-1.7 0-3-1.3-3-3s1.3-3 3-3h42c1.7 0 3 1.3 3 3s-1.3 3-3 3zM53 35H11c-1.7 0-3-1.3-3-3s1.3-3 3-3h42c1.7 0 3 1.3 3 3s-1.3 3-3 3zM53 49H11c-1.7 0-3-1.3-3-3s1.3-3 3-3h42c1.7 0 3 1.3 3 3s-1.3 3-3 3z" fill="black" opacity="1" data-original="#fff" class=""></path></g></svg>